<svg width="45" height="45" viewBox="0 0 45 45" fill="none" xmlns="http://www.w3.org/2000/svg">
<path d="M0 10.4618V0H10.5229C6.05925 2.36948 2.3833 6.0241 0 10.4618Z" fill="white"/>
<path d="M40.4151 8.97591C39.3244 7.5502 38.052 6.26506 36.6382 5.14057C32.8007 2.08836 27.9331 0.240967 22.6413 0.240967C10.2603 0.240967 0.24231 10.2008 0.24231 22.49C0.24231 27.751 2.08028 32.6104 5.1705 36.4056C6.30156 37.8112 7.59419 39.0763 9.02822 40.1606C12.8051 43.0321 17.5112 44.739 22.6211 44.739C34.982 44.739 44.9999 34.7791 44.9999 22.49C44.9999 17.4096 43.2832 12.7309 40.4151 8.97591ZM8.74545 32.8514C6.56412 29.9598 5.27148 26.3855 5.27148 22.49C5.27148 12.9518 13.0475 5.24097 22.6211 5.24097C26.5394 5.24097 30.1346 6.52611 33.043 8.69478L8.74545 32.8514ZM22.6211 39.759C18.9048 39.759 15.451 38.5944 12.6234 36.6064L36.82 12.5502C38.8195 15.3614 39.991 18.7952 39.991 22.49C39.991 32.0281 32.2149 39.759 22.6211 39.759Z" fill="white"/>
<path d="M10.5229 45H0V34.5381C0.807899 36.0241 1.75718 37.4297 2.82765 38.7349C3.9789 40.1205 5.27154 41.3855 6.68537 42.49C7.89722 43.4337 9.16966 44.2771 10.5229 45Z" fill="white"/>
</svg>
