<svg width="233" height="45" viewBox="0 0 233 45" fill="none" xmlns="http://www.w3.org/2000/svg">
<path d="M69.512 39.288C68.168 39.288 66.88 39.112 65.648 38.76C64.416 38.392 63.424 37.92 62.672 37.344L63.992 34.416C64.712 34.928 65.56 35.352 66.536 35.688C67.528 36.008 68.528 36.168 69.536 36.168C70.304 36.168 70.92 36.096 71.384 35.952C71.864 35.792 72.216 35.576 72.44 35.304C72.664 35.032 72.776 34.72 72.776 34.368C72.776 33.92 72.6 33.568 72.248 33.312C71.896 33.04 71.432 32.824 70.856 32.664C70.28 32.488 69.64 32.328 68.936 32.184C68.248 32.024 67.552 31.832 66.848 31.608C66.16 31.384 65.528 31.096 64.952 30.744C64.376 30.392 63.904 29.928 63.536 29.352C63.184 28.776 63.008 28.04 63.008 27.144C63.008 26.184 63.264 25.312 63.776 24.528C64.304 23.728 65.088 23.096 66.128 22.632C67.184 22.152 68.504 21.912 70.088 21.912C71.144 21.912 72.184 22.04 73.208 22.296C74.232 22.536 75.136 22.904 75.92 23.4L74.72 26.352C73.936 25.904 73.152 25.576 72.368 25.368C71.584 25.144 70.816 25.032 70.064 25.032C69.312 25.032 68.696 25.12 68.216 25.296C67.736 25.472 67.392 25.704 67.184 25.992C66.976 26.264 66.872 26.584 66.872 26.952C66.872 27.384 67.048 27.736 67.4 28.008C67.752 28.264 68.216 28.472 68.792 28.632C69.368 28.792 70 28.952 70.688 29.112C71.392 29.272 72.088 29.456 72.776 29.664C73.48 29.872 74.12 30.152 74.696 30.504C75.272 30.856 75.736 31.32 76.088 31.896C76.456 32.472 76.64 33.2 76.64 34.08C76.64 35.024 76.376 35.888 75.848 36.672C75.32 37.456 74.528 38.088 73.472 38.568C72.432 39.048 71.112 39.288 69.512 39.288ZM82.1287 36.36L82.2247 31.8L88.2487 26.088H92.7127L86.9287 31.968L84.9847 33.552L82.1287 36.36ZM79.0327 39V21.192H82.7767V39H79.0327ZM88.6567 39L84.2887 33.576L86.6407 30.672L93.1927 39H88.6567ZM94.8764 39V26.088H98.6204V39H94.8764ZM96.7484 24.288C96.0604 24.288 95.5004 24.088 95.0684 23.688C94.6364 23.288 94.4204 22.792 94.4204 22.2C94.4204 21.608 94.6364 21.112 95.0684 20.712C95.5004 20.312 96.0604 20.112 96.7484 20.112C97.4364 20.112 97.9964 20.304 98.4284 20.688C98.8604 21.056 99.0764 21.536 99.0764 22.128C99.0764 22.752 98.8604 23.272 98.4284 23.688C98.0124 24.088 97.4524 24.288 96.7484 24.288ZM109.727 39.192C108.639 39.192 107.687 38.952 106.871 38.472C106.055 37.992 105.415 37.264 104.951 36.288C104.503 35.296 104.279 34.048 104.279 32.544C104.279 31.024 104.495 29.776 104.927 28.8C105.359 27.824 105.983 27.096 106.799 26.616C107.615 26.136 108.591 25.896 109.727 25.896C110.943 25.896 112.031 26.176 112.991 26.736C113.967 27.28 114.735 28.048 115.295 29.04C115.871 30.032 116.159 31.2 116.159 32.544C116.159 33.904 115.871 35.08 115.295 36.072C114.735 37.064 113.967 37.832 112.991 38.376C112.031 38.92 110.943 39.192 109.727 39.192ZM102.095 43.656V26.088H105.671V28.728L105.599 32.568L105.839 36.384V43.656H102.095ZM109.079 36.12C109.703 36.12 110.255 35.976 110.735 35.688C111.231 35.4 111.623 34.992 111.911 34.464C112.215 33.92 112.367 33.28 112.367 32.544C112.367 31.792 112.215 31.152 111.911 30.624C111.623 30.096 111.231 29.688 110.735 29.4C110.255 29.112 109.703 28.968 109.079 28.968C108.455 28.968 107.895 29.112 107.399 29.4C106.903 29.688 106.511 30.096 106.223 30.624C105.935 31.152 105.791 31.792 105.791 32.544C105.791 33.28 105.935 33.92 106.223 34.464C106.511 34.992 106.903 35.4 107.399 35.688C107.895 35.976 108.455 36.12 109.079 36.12ZM125.726 39V22.2H128.942L138.854 34.296H137.294V22.2H141.134V39H137.942L128.006 26.904H129.566V39H125.726ZM150.917 43.848C149.701 43.848 148.525 43.696 147.389 43.392C146.269 43.104 145.333 42.664 144.581 42.072L146.069 39.384C146.613 39.832 147.301 40.184 148.133 40.44C148.981 40.712 149.813 40.848 150.629 40.848C151.957 40.848 152.917 40.552 153.509 39.96C154.117 39.368 154.421 38.488 154.421 37.32V35.376L154.661 32.136L154.613 28.872V26.088H158.165V36.84C158.165 39.24 157.541 41.008 156.293 42.144C155.045 43.28 153.253 43.848 150.917 43.848ZM150.341 38.376C149.141 38.376 148.053 38.12 147.077 37.608C146.117 37.08 145.341 36.352 144.749 35.424C144.173 34.48 143.885 33.384 143.885 32.136C143.885 30.872 144.173 29.776 144.749 28.848C145.341 27.904 146.117 27.176 147.077 26.664C148.053 26.152 149.141 25.896 150.341 25.896C151.429 25.896 152.389 26.12 153.221 26.568C154.053 27 154.701 27.68 155.165 28.608C155.629 29.52 155.861 30.696 155.861 32.136C155.861 33.56 155.629 34.736 155.165 35.664C154.701 36.576 154.053 37.256 153.221 37.704C152.389 38.152 151.429 38.376 150.341 38.376ZM151.085 35.304C151.741 35.304 152.325 35.176 152.837 34.92C153.349 34.648 153.749 34.272 154.037 33.792C154.325 33.312 154.469 32.76 154.469 32.136C154.469 31.496 154.325 30.944 154.037 30.48C153.749 30 153.349 29.632 152.837 29.376C152.325 29.104 151.741 28.968 151.085 28.968C150.429 28.968 149.845 29.104 149.333 29.376C148.821 29.632 148.413 30 148.109 30.48C147.821 30.944 147.677 31.496 147.677 32.136C147.677 32.76 147.821 33.312 148.109 33.792C148.413 34.272 148.821 34.648 149.333 34.92C149.845 35.176 150.429 35.304 151.085 35.304ZM167.794 39.192C166.418 39.192 165.194 38.904 164.122 38.328C163.066 37.752 162.226 36.968 161.602 35.976C160.994 34.968 160.69 33.824 160.69 32.544C160.69 31.248 160.994 30.104 161.602 29.112C162.226 28.104 163.066 27.32 164.122 26.76C165.194 26.184 166.418 25.896 167.794 25.896C169.154 25.896 170.37 26.184 171.442 26.76C172.514 27.32 173.354 28.096 173.962 29.088C174.57 30.08 174.874 31.232 174.874 32.544C174.874 33.824 174.57 34.968 173.962 35.976C173.354 36.968 172.514 37.752 171.442 38.328C170.37 38.904 169.154 39.192 167.794 39.192ZM167.794 36.12C168.418 36.12 168.978 35.976 169.474 35.688C169.97 35.4 170.362 34.992 170.65 34.464C170.938 33.92 171.082 33.28 171.082 32.544C171.082 31.792 170.938 31.152 170.65 30.624C170.362 30.096 169.97 29.688 169.474 29.4C168.978 29.112 168.418 28.968 167.794 28.968C167.17 28.968 166.61 29.112 166.114 29.4C165.618 29.688 165.218 30.096 164.914 30.624C164.626 31.152 164.482 31.792 164.482 32.544C164.482 33.28 164.626 33.92 164.914 34.464C165.218 34.992 165.618 35.4 166.114 35.688C166.61 35.976 167.17 36.12 167.794 36.12ZM182.92 39.192C181.704 39.192 180.608 38.92 179.632 38.376C178.656 37.816 177.88 37.04 177.304 36.048C176.744 35.056 176.464 33.888 176.464 32.544C176.464 31.184 176.744 30.008 177.304 29.016C177.88 28.024 178.656 27.256 179.632 26.712C180.608 26.168 181.704 25.896 182.92 25.896C184.008 25.896 184.96 26.136 185.776 26.616C186.592 27.096 187.224 27.824 187.672 28.8C188.12 29.776 188.344 31.024 188.344 32.544C188.344 34.048 188.128 35.296 187.696 36.288C187.264 37.264 186.64 37.992 185.824 38.472C185.024 38.952 184.056 39.192 182.92 39.192ZM183.568 36.12C184.176 36.12 184.728 35.976 185.224 35.688C185.72 35.4 186.112 34.992 186.4 34.464C186.704 33.92 186.856 33.28 186.856 32.544C186.856 31.792 186.704 31.152 186.4 30.624C186.112 30.096 185.72 29.688 185.224 29.4C184.728 29.112 184.176 28.968 183.568 28.968C182.944 28.968 182.384 29.112 181.888 29.4C181.392 29.688 180.992 30.096 180.688 30.624C180.4 31.152 180.256 31.792 180.256 32.544C180.256 33.28 180.4 33.92 180.688 34.464C180.992 34.992 181.392 35.4 181.888 35.688C182.384 35.976 182.944 36.12 183.568 36.12ZM186.952 39V36.36L187.024 32.52L186.784 28.704V21.192H190.528V39H186.952ZM193.994 39V26.088H197.738V39H193.994ZM195.866 24.288C195.178 24.288 194.618 24.088 194.186 23.688C193.754 23.288 193.538 22.792 193.538 22.2C193.538 21.608 193.754 21.112 194.186 20.712C194.618 20.312 195.178 20.112 195.866 20.112C196.554 20.112 197.114 20.304 197.546 20.688C197.978 21.056 198.194 21.536 198.194 22.128C198.194 22.752 197.978 23.272 197.546 23.688C197.13 24.088 196.57 24.288 195.866 24.288ZM209.06 25.896C210.084 25.896 210.996 26.104 211.796 26.52C212.612 26.92 213.252 27.544 213.716 28.392C214.18 29.224 214.412 30.296 214.412 31.608V39H210.668V32.184C210.668 31.144 210.436 30.376 209.972 29.88C209.524 29.384 208.884 29.136 208.052 29.136C207.46 29.136 206.924 29.264 206.444 29.52C205.98 29.76 205.612 30.136 205.34 30.648C205.084 31.16 204.956 31.816 204.956 32.616V39H201.212V26.088H204.788V29.664L204.116 28.584C204.58 27.72 205.244 27.056 206.108 26.592C206.972 26.128 207.956 25.896 209.06 25.896ZM223.972 43.848C222.756 43.848 221.58 43.696 220.444 43.392C219.324 43.104 218.388 42.664 217.636 42.072L219.124 39.384C219.668 39.832 220.356 40.184 221.188 40.44C222.036 40.712 222.868 40.848 223.684 40.848C225.012 40.848 225.972 40.552 226.564 39.96C227.172 39.368 227.476 38.488 227.476 37.32V35.376L227.716 32.136L227.668 28.872V26.088H231.22V36.84C231.22 39.24 230.596 41.008 229.348 42.144C228.1 43.28 226.308 43.848 223.972 43.848ZM223.396 38.376C222.196 38.376 221.108 38.12 220.132 37.608C219.172 37.08 218.396 36.352 217.804 35.424C217.228 34.48 216.94 33.384 216.94 32.136C216.94 30.872 217.228 29.776 217.804 28.848C218.396 27.904 219.172 27.176 220.132 26.664C221.108 26.152 222.196 25.896 223.396 25.896C224.484 25.896 225.444 26.12 226.276 26.568C227.108 27 227.756 27.68 228.22 28.608C228.684 29.52 228.916 30.696 228.916 32.136C228.916 33.56 228.684 34.736 228.22 35.664C227.756 36.576 227.108 37.256 226.276 37.704C225.444 38.152 224.484 38.376 223.396 38.376ZM224.14 35.304C224.796 35.304 225.38 35.176 225.892 34.92C226.404 34.648 226.804 34.272 227.092 33.792C227.38 33.312 227.524 32.76 227.524 32.136C227.524 31.496 227.38 30.944 227.092 30.48C226.804 30 226.404 29.632 225.892 29.376C225.38 29.104 224.796 28.968 224.14 28.968C223.484 28.968 222.9 29.104 222.388 29.376C221.876 29.632 221.468 30 221.164 30.48C220.876 30.944 220.732 31.496 220.732 32.136C220.732 32.76 220.876 33.312 221.164 33.792C221.468 34.272 221.876 34.648 222.388 34.92C222.9 35.176 223.484 35.304 224.14 35.304Z" fill="white"/>
<path d="M0 10.4618V0H10.5229C6.05925 2.36948 2.3833 6.0241 0 10.4618Z" fill="white"/>
<path d="M40.4151 8.97591C39.3244 7.5502 38.052 6.26506 36.6382 5.14057C32.8007 2.08836 27.9331 0.240967 22.6413 0.240967C10.2603 0.240967 0.24231 10.2008 0.24231 22.49C0.24231 27.751 2.08028 32.6104 5.1705 36.4056C6.30156 37.8112 7.59419 39.0763 9.02822 40.1606C12.8051 43.0321 17.5112 44.739 22.6211 44.739C34.982 44.739 44.9999 34.7791 44.9999 22.49C44.9999 17.4096 43.2832 12.7309 40.4151 8.97591ZM8.74545 32.8514C6.56412 29.9598 5.27148 26.3855 5.27148 22.49C5.27148 12.9518 13.0475 5.24097 22.6211 5.24097C26.5394 5.24097 30.1346 6.52611 33.043 8.69478L8.74545 32.8514ZM22.6211 39.759C18.9048 39.759 15.451 38.5944 12.6234 36.6064L36.82 12.5502C38.8195 15.3614 39.991 18.7952 39.991 22.49C39.991 32.0281 32.2149 39.759 22.6211 39.759Z" fill="white"/>
<path d="M10.5229 45H0V34.5381C0.807899 36.0241 1.75718 37.4297 2.82765 38.7349C3.9789 40.1205 5.27154 41.3855 6.68537 42.49C7.89722 43.4337 9.16966 44.2771 10.5229 45Z" fill="white"/>
</svg>
